<?xml version="1.0" standalone="no"?>
<!DOCTYPE svg PUBLIC "-//W3C//DTD SVG 20010904//EN"
 "http://www.w3.org/TR/2001/REC-SVG-20010904/DTD/svg10.dtd">
<svg version="1.0" xmlns="http://www.w3.org/2000/svg"
 width="1483.000000pt" height="1483.000000pt" viewBox="0 0 1483.000000 1483.000000"
 preserveAspectRatio="xMidYMid meet">
<metadata>
Created by potrace 1.11, written by Peter Selinger 2001-2013
</metadata>
<g transform="translate(0.000000,1483.000000) scale(0.100000,-0.100000)"
fill="#000000" stroke="none">
<path d="M0 7415 l0 -7415 7415 0 7415 0 0 7415 0 7415 -7415 0 -7415 0 0
-7415z m12942 4173 c9 -7 18 -30 21 -52 17 -113 139 -163 231 -93 19 15 38 27
43 27 13 0 99 -82 117 -110 14 -24 13 -28 -14 -69 -45 -66 -40 -130 13 -188
19 -21 48 -34 108 -47 24 -5 27 -12 32 -58 4 -29 3 -71 -1 -93 -7 -37 -10 -40
-52 -47 -118 -20 -170 -132 -107 -227 15 -22 27 -47 27 -54 0 -14 -112 -127
-126 -127 -4 0 -26 12 -48 28 -31 21 -51 27 -92 27 -47 0 -57 -4 -88 -34 -23
-22 -38 -48 -42 -70 -11 -69 -12 -69 -68 -76 -29 -4 -72 -3 -97 2 -42 8 -44
11 -50 48 -7 51 -21 76 -60 109 -42 36 -111 36 -163 1 -20 -14 -44 -25 -54
-25 -22 0 -122 100 -122 123 0 10 9 30 21 46 27 36 38 88 27 128 -12 45 -61
91 -106 98 -65 11 -67 13 -67 110 0 97 -4 91 77 109 96 21 137 148 73 225 -14
16 -25 36 -25 45 0 21 108 126 130 126 10 0 23 -7 30 -14 6 -8 32 -23 56 -32
37 -14 51 -15 83 -5 41 12 100 70 102 99 1 37 10 67 22 74 20 13 152 9 169 -4z
m-10799 -1954 c161 -41 329 -178 400 -324 78 -159 71 10 77 -1950 l5 -1755 26
-67 c75 -193 216 -331 409 -400 l65 -23 940 -5 940 -5 80 -28 c232 -82 390
-266 432 -502 54 -308 -129 -610 -431 -713 l-81 -27 -1542 -3 c-1722 -3 -1616
-7 -1772 68 -114 55 -231 170 -284 280 -73 149 -67 -63 -67 2565 0 2629 -6
2414 67 2564 26 55 56 95 117 156 109 111 206 159 386 189 43 8 169 -3 233
-20z m10880 0 c171 -44 324 -169 402 -329 76 -154 70 77 70 -2565 0 -2258 -1
-2368 -18 -2429 -78 -274 -307 -461 -586 -478 -299 -18 -582 189 -656 482 -13
52 -15 345 -15 2426 0 2332 0 2367 20 2444 28 110 79 196 170 287 106 105 205
152 380 182 43 8 169 -3 233 -20z m-6105 -10 c96 -19 199 -68 277 -131 72 -58
155 -172 185 -251 50 -133 49 -97 50 -1662 0 -1432 1 -1467 20 -1550 96 -402
285 -664 581 -804 207 -98 461 -135 724 -106 273 31 486 130 651 302 157 164
248 346 310 618 l24 105 0 1470 c0 1632 -4 1529 68 1675 54 110 168 223 282
279 141 69 269 86 418 55 261 -53 460 -264 501 -531 8 -50 11 -599 11 -1814 0
-1894 2 -1822 -56 -2051 -114 -453 -387 -812 -800 -1049 -234 -135 -544 -240
-864 -293 -379 -63 -904 -72 -1294 -21 -991 130 -1620 608 -1809 1375 -50 203
-48 114 -47 2045 1 1538 3 1809 15 1863 41 175 173 341 335 421 141 69 269 86
418 55z m-603 -5389 c147 -85 136 -299 -18 -371 -66 -30 -118 -30 -183 0 -82
38 -131 123 -122 210 18 158 186 242 323 161z m5261 0 c133 -78 133 -282 -1
-361 -83 -48 -177 -42 -250 19 -69 56 -94 161 -60 245 50 118 196 164 311 97z"/>
<path d="M12785 11158 c-90 -32 -140 -111 -133 -213 3 -51 10 -73 33 -107 104
-146 330 -101 377 75 41 155 -122 299 -277 245z"/>
</g>
</svg>
