<?xml version="1.0" encoding="utf-8"?>
<!-- Generator: Adobe Illustrator 19.0.0, SVG Export Plug-In . SVG Version: 6.00 Build 0)  -->
<svg version="1.1" id="Calque_1" xmlns="http://www.w3.org/2000/svg" xmlns:xlink="http://www.w3.org/1999/xlink" x="0px" y="0px"
	 viewBox="0 0 355.9 227.2" style="enable-background:new 0 0 355.9 227.2;" xml:space="preserve">
<style type="text/css">
	.st0{fill:#FFFFFF;}
	.st1{fill-rule:evenodd;clip-rule:evenodd;fill:#FFFFFF;}
</style>
<g>
	<rect y="247.9" style="fill:none;" width="355.9" height="40"/>
	<text transform="matrix(1 0 0 1 2.938 267.2492)" style="display:none;fill:#0B6554; font-family:'Lato-Bold'; font-size:26px;">Leçons d’Utilisation d’Internet</text>
	<path class="st0" d="M355.9,208.5c0,10.4-8.4,18.7-18.7,18.7l0,0c-10.4,0-18.7-8.4-18.7-18.7v-133c0-10.4,8.4-18.7,18.7-18.7l0,0
		c10.4,0,18.7,8.4,18.7,18.7V208.5z"/>
	<path class="st0" d="M104,189.8H57h-0.7c-10.4,0-18.7-8.4-18.7-18.7V75.5c0-10.4-8.4-18.7-18.7-18.7C8.4,56.8,0,65.2,0,75.5v133
		c0,10.4,8.4,18.7,18.7,18.7H104c10.4,0,18.7-8.4,18.7-18.7C122.7,198.2,114.3,189.8,104,189.8z"/>
	<path class="st0" d="M140.9,169.4c0,0-7.2,57.9,71.3,57.9v0c78.5,0,71.3-57.9,71.3-57.9V76c0-10.4-8.4-18.7-18.7-18.7
		c-10.3,0-18.7,8.4-18.7,18.7v83.2c-2.1,13.6-9.5,30.4-33.8,30.4l0,0c-24.3,0-31.7-16.8-33.8-30.4V76c0-10.4-8.4-18.7-18.7-18.7
		c-10.4,0-18.7,8.4-18.7,18.7V169.4"/>
	<circle class="st0" cx="296.4" cy="220.6" r="6.3"/>
	<circle class="st0" cx="142.5" cy="220.6" r="6.3"/>
	<path class="st1" d="M355.8,16.7c-0.1-0.5-0.7-0.9-1.2-0.9c-1.7,0-3.2-1-3.9-2.6c-0.7-1.6-0.2-3.5,1-4.6c0.4-0.4,0.5-1,0.1-1.4
		c-0.9-1.1-1.9-2.1-3-3c-0.4-0.3-1.1-0.3-1.4,0.1c-1.1,1.2-3.1,1.7-4.7,1.1c-1.6-0.7-2.6-2.3-2.5-4.1c0-0.6-0.4-1-0.9-1.1
		c-1.4-0.2-2.8-0.2-4.2,0c-0.5,0.1-0.9,0.5-0.9,1.1c0.1,1.7-1,3.3-2.6,4c-1.5,0.6-3.5,0.2-4.6-1.1c-0.4-0.4-1-0.5-1.4-0.1
		c-1.1,0.9-2.1,1.9-3,3c-0.3,0.4-0.3,1.1,0.1,1.4c1.3,1.2,1.7,3.1,1,4.7c-0.6,1.5-2.2,2.5-4.1,2.5c-0.6,0-1,0.4-1.1,0.9
		c-0.2,1.4-0.2,2.8,0,4.3c0.1,0.5,0.7,0.9,1.2,0.9c1.6,0,3.2,1,3.9,2.6c0.7,1.6,0.2,3.5-1,4.6c-0.4,0.4-0.5,1-0.1,1.4
		c0.9,1.1,1.9,2.1,3,3c0.4,0.3,1.1,0.3,1.4-0.1c1.1-1.2,3.1-1.7,4.7-1.1c1.6,0.7,2.6,2.3,2.5,4.1c0,0.6,0.4,1,0.9,1.1
		c0.7,0.1,1.4,0.1,2.2,0.1c0.7,0,1.4,0,2.1-0.1c0.5-0.1,0.9-0.5,0.9-1.1c-0.1-1.7,1-3.3,2.6-4c1.5-0.6,3.5-0.2,4.6,1.1
		c0.4,0.4,1,0.5,1.4,0.1c1.1-0.9,2.1-1.9,3-3c0.3-0.4,0.3-1.1-0.1-1.4c-1.3-1.2-1.7-3.1-1.1-4.7c0.6-1.5,2.2-2.5,3.8-2.5l0.2,0
		c0.5,0,1-0.4,1.1-0.9C356,19.5,356,18.1,355.8,16.7L355.8,16.7z M337.2,25c-3.4,0-6.3-2.8-6.3-6.3c0-3.4,2.8-6.3,6.3-6.3
		c3.4,0,6.3,2.8,6.3,6.3C343.5,22.2,340.7,25,337.2,25L337.2,25z M337.2,25"/>
</g>
</svg>
